<!DOCTYPE svg PUBLIC "-//W3C//DTD SVG 1.1//EN" "http://www.w3.org/Graphics/SVG/1.1/DTD/svg11.dtd">
<!-- Uploaded to: SVG Repo, www.svgrepo.com, Transformed by: SVG Repo Mixer Tools -->
<svg fill="#4c80e6" height="64px" width="64px" version="1.1" id="Layer_1" xmlns="http://www.w3.org/2000/svg" xmlns:xlink="http://www.w3.org/1999/xlink" viewBox="0 0 512 512" xml:space="preserve">
<g id="SVGRepo_bgCarrier" stroke-width="0"/>
<g id="SVGRepo_tracerCarrier" stroke-linecap="round" stroke-linejoin="round"/>
<g id="SVGRepo_iconCarrier"> <g> <g> <path d="M184.889,294.698h-4.571c-7.481,0-13.545,6.065-13.545,13.545s6.064,13.545,13.545,13.545h4.571 c7.481,0,13.545-6.065,13.545-13.545S192.37,294.698,184.889,294.698z"/> </g> </g> <g> <g> <path d="M498.455,199.666c-12.117,0-24.008,2.124-35.217,6.206V78.114c0-38.651-31.445-70.095-70.095-70.095H118.857 c-38.651,0-70.095,31.445-70.095,70.095v127.759c-11.21-4.083-23.1-6.206-35.217-6.206C6.064,199.666,0,205.732,0,213.211v183.304 c0,29.161,21.058,53.48,48.762,58.593v35.328c0,7.479,6.064,13.545,13.545,13.545h71.721c7.481,0,13.545-6.065,13.545-13.545 v-34.323h216.855v34.323c0,7.479,6.065,13.545,13.545,13.545h71.721c7.48,0,13.545-6.065,13.545-13.545v-35.328 C490.942,449.996,512,425.676,512,396.516V213.211C512,205.732,505.935,199.666,498.455,199.666z M59.598,429.023 c-17.924,0-32.508-14.583-32.508-32.508v-168.55c9.885,1.784,19.329,5.521,27.821,11.06 c21.593,14.072,34.486,37.838,34.486,63.569v126.429h-27.09H59.598z M120.483,476.891H75.852v-20.778h44.631V476.891z M134.028,429.023h-17.541V321.788h22.18c7.481,0,13.545-6.065,13.545-13.545c0-7.48-6.064-13.545-13.545-13.545h-22.491 c-2.234-29.357-16.843-56.19-40.323-74.025V78.114c0-23.713,19.292-43.005,43.005-43.005h274.286 c23.713,0,43.005,19.292,43.005,43.005v142.56c-23.48,17.839-38.09,44.67-40.323,74.025H225.524 c-7.481,0-13.545,6.065-13.545,13.545s6.064,13.545,13.545,13.545h169.989v107.236h-17.541H134.028z M436.148,476.891h-44.631 v-20.778h44.631V476.891z M484.91,396.516c0,17.924-14.584,32.508-32.508,32.508h-2.709h-27.09V302.595 c0-25.731,12.892-49.496,34.49-63.573c8.49-5.537,17.932-9.273,27.817-11.057V396.516z"/> </g> </g> </g>
</svg>