<!DOCTYPE svg PUBLIC "-//W3C//DTD SVG 1.1//EN" "http://www.w3.org/Graphics/SVG/1.1/DTD/svg11.dtd">
<!-- Uploaded to: SVG Repo, www.svgrepo.com, Transformed by: SVG Repo Mixer Tools -->
<svg version="1.1" id="Layer_1" xmlns="http://www.w3.org/2000/svg" xmlns:xlink="http://www.w3.org/1999/xlink" viewBox="0 0 512 512" xml:space="preserve" width="64px" height="64px" fill="#000000">
<g id="SVGRepo_bgCarrier" stroke-width="0"/>
<g id="SVGRepo_tracerCarrier" stroke-linecap="round" stroke-linejoin="round"/>
<g id="SVGRepo_iconCarrier"> <path style="fill:#414D53;" d="M374.075,33.297C371.026,14.989,353.336,0,334.769,0h-33.758l74.482,255.629h15.54V135.033 L374.075,33.297z"/> <path style="fill:#57676E;" d="M340.317,33.297l35.176,222.332H120.967V135.033l16.958-101.736C140.974,14.989,158.664,0,177.231,0 h123.78C319.578,0,337.267,14.989,340.317,33.297z"/> <rect x="247.56" y="312.264" style="fill:#414D53;" width="16.879" height="154.725"/> <rect x="233.495" y="354.462" style="fill:#57676E;" width="45.011" height="78.769"/> <path style="fill:#414D53;" d="M391.033,475.429c-4.661,0-8.44-3.778-8.44-8.44V441.67H129.407v25.319c0,4.662-3.779,8.44-8.44,8.44 c-4.661,0-8.44-3.778-8.44-8.44v-33.758c0-4.662,3.779-8.44,8.44-8.44h270.066c4.661,0,8.44,3.778,8.44,8.44v33.758 C399.473,471.651,395.694,475.429,391.033,475.429z"/> <g> <circle style="fill:#C4D3D9;" cx="120.967" cy="489.495" r="22.505"/> <circle style="fill:#C4D3D9;" cx="256" cy="489.495" r="22.505"/> <circle style="fill:#C4D3D9;" cx="391.033" cy="489.495" r="22.505"/> </g> <path style="fill:#A2B1B7;" d="M334.769,185.67h-33.758v112.527l90.022-22.505l-22.505-56.264 C368.527,200.862,353.336,185.67,334.769,185.67z"/> <path style="fill:#C4D3D9;" d="M334.769,219.429v78.769H120.967l22.505-78.769c0-18.567,15.191-33.758,33.758-33.758h123.78 C319.578,185.67,334.769,200.862,334.769,219.429z"/> <path style="fill:#57676E;" d="M396.659,135.033h-11.253c-1.969,0-3.871,0.338-5.626,0.979c6.538,2.329,11.253,8.586,11.253,15.9 l-16.879,168.791h22.505c9.284,0,16.879-7.596,16.879-16.879V151.912C413.538,142.629,405.943,135.033,396.659,135.033z"/> <path style="fill:#748993;" d="M379.78,136.012c-6.538,2.329-11.253,8.586-11.253,15.9v123.78H143.473v-123.78 c0-9.284-7.596-16.879-16.879-16.879h-11.253c-9.284,0-16.879,7.596-16.879,16.879v151.912c0,9.284,7.596,16.879,16.879,16.879 h258.813c9.284,0,16.879-7.596,16.879-16.879V151.912C391.033,144.598,386.318,138.341,379.78,136.012z"/> </g>
</svg>