<!DOCTYPE svg PUBLIC "-//W3C//DTD SVG 1.1//EN" "http://www.w3.org/Graphics/SVG/1.1/DTD/svg11.dtd">
<!-- Uploaded to: SVG Repo, www.svgrepo.com, Transformed by: SVG Repo Mixer Tools -->
<svg height="64px" width="64px" version="1.1" id="Layer_1" xmlns="http://www.w3.org/2000/svg" xmlns:xlink="http://www.w3.org/1999/xlink" viewBox="0 0 512 512" xml:space="preserve" fill="#000000">
<g id="SVGRepo_bgCarrier" stroke-width="0"/>
<g id="SVGRepo_tracerCarrier" stroke-linecap="round" stroke-linejoin="round"/>
<g id="SVGRepo_iconCarrier"> <path style="fill:#1D1D1F;" d="M475.879,77.927l-41.751-41.751c-6.519-6.52-17.091-6.52-23.611,0L156.694,289.999 c-6.52,6.52-6.52,17.091,0,23.611l41.751,41.751c3.26,3.26,7.533,4.891,11.805,4.891c4.272,0,8.546-1.629,11.805-4.891 l253.824-253.824C482.399,95.017,482.399,84.447,475.879,77.927z"/> <path style="fill:#37383A;" d="M434.127,36.176c-6.519-6.52-17.091-6.52-23.611,0L156.694,289.999c-6.52,6.52-6.52,17.091,0,23.611 l20.858,20.858L454.986,57.035L434.127,36.176z"/> <path style="fill:#2D2E30;" d="M26.214,353.073L3.641,330.501c-4.782-4.782-4.782-12.534,0-17.315l40.676-40.676 c4.782-4.782,12.534-4.782,17.315,0l22.573,22.573L26.214,353.073z"/> <path style="fill:#1D1D1F;" d="M158.982,485.841l22.573,22.573c4.782,4.782,12.534,4.782,17.314,0l40.676-40.676 c4.782-4.782,4.782-12.534,0-17.315l-22.573-22.573L158.982,485.841z"/> <path style="fill:#2D2E30;" d="M36.32,475.735c-22.777-22.777-35.321-53.061-35.321-85.274s12.544-62.496,35.321-85.274 c22.777-22.777,53.061-35.321,85.274-35.322c32.213,0,62.496,12.544,85.274,35.321c22.777,22.777,35.321,53.061,35.321,85.274 s-12.544,62.496-35.322,85.274c-22.777,22.777-53.061,35.321-85.274,35.321C89.381,511.056,59.097,498.512,36.32,475.735z M169.088,342.966c-12.686-12.686-29.554-19.673-47.496-19.673s-34.809,6.987-47.496,19.673 c-12.686,12.686-19.673,29.554-19.673,47.496c0,17.941,6.987,34.809,19.673,47.496c12.686,12.686,29.554,19.673,47.496,19.673 s34.809-6.987,47.496-19.673c12.686-12.686,19.673-29.555,19.673-47.496S181.775,355.652,169.088,342.966z"/> <g> <path style="fill:#8A8A91;" d="M230.002,150.125c-3.593-3.593-9.419-3.593-13.011,0l-63.086,63.086 c-3.593,3.593-3.593,9.419,0,13.01l17.379,17.379c3.593,3.593,9.417,3.593,13.01,0l17.788-17.788l84.159,84.159l-17.788,17.786 c-3.593,3.593-3.593,9.419,0,13.01l17.379,17.379c3.593,3.593,9.419,3.593,13.01,0l63.086-63.086c3.593-3.593,3.593-9.419,0-13.011 L230.002,150.125z"/> <path style="fill:#8A8A91;" d="M300.106,114.28c-6.519-6.52-17.091-6.52-23.611,0l-21.73,21.73 c-3.131,3.131-4.891,7.377-4.891,11.805c0,4.429,1.76,8.674,4.891,11.805l97.67,97.668c3.26,3.26,7.533,4.891,11.805,4.891 c4.272,0,8.546-1.63,11.805-4.891l21.73-21.73c3.131-3.131,4.891-7.377,4.891-11.805c0-4.429-1.759-8.674-4.891-11.805 L300.106,114.28z"/> <path style="fill:#8A8A91;" d="M352.756,61.629c-3.131-3.131-7.377-4.891-11.805-4.891s-8.675,1.76-11.805,4.891l-21.73,21.73 c-6.52,6.52-6.52,17.091,0,23.611l97.668,97.67c3.131,3.131,7.377,4.891,11.805,4.891c4.428,0,8.675-1.76,11.805-4.891l21.73-21.73 c6.52-6.52,6.52-17.091,0-23.611L352.756,61.629z"/> <path style="fill:#8A8A91;" d="M498.076,100.125L411.82,13.869c-18.491-18.491-48.579-18.492-67.072,0 c-3.131,3.131-4.891,7.377-4.891,11.805c0,4.429,1.759,8.675,4.891,11.806l129.717,129.716c3.131,3.131,7.377,4.891,11.805,4.891 c4.428,0,8.675-1.76,11.805-4.891C516.568,148.704,516.568,118.616,498.076,100.125z"/> </g> <path style="fill:#57565C;" d="M121.594,269.866c-32.213,0-62.496,12.544-85.274,35.321c-22.777,22.777-35.321,53.061-35.321,85.274 c0,32.204,12.538,62.481,35.305,85.256l37.778-37.778c-12.675-12.684-19.656-29.545-19.656-47.478 c0-17.941,6.987-34.809,19.673-47.496c12.686-12.686,29.555-19.673,47.496-19.673c17.933,0,34.793,6.981,47.478,19.656 l37.778-37.778C184.073,282.405,153.797,269.866,121.594,269.866z"/> <g> <path style="fill:#C6C5CA;" d="M230.002,150.125c-3.593-3.593-9.419-3.593-13.011,0l-63.086,63.086 c-3.593,3.593-3.593,9.419,0,13.01l17.379,17.379c3.593,3.593,9.417,3.593,13.01,0l17.788-17.788l42.062,42.062l51.804-51.804 L230.002,150.125z"/> <path style="fill:#C6C5CA;" d="M300.106,114.28c-6.519-6.52-17.091-6.52-23.611,0l-21.73,21.73 c-3.131,3.131-4.891,7.377-4.891,11.805c0,4.429,1.76,8.674,4.891,11.805l48.818,48.817l45.341-45.341L300.106,114.28z"/> <path style="fill:#C6C5CA;" d="M352.756,61.629c-3.131-3.131-7.377-4.891-11.805-4.891s-8.675,1.76-11.805,4.891l-21.73,21.73 c-6.52,6.52-6.52,17.091,0,23.611l48.817,48.817l45.341-45.341L352.756,61.629z"/> <path style="fill:#C6C5CA;" d="M411.82,13.869c-18.491-18.491-48.579-18.492-67.072,0c-3.131,3.131-4.891,7.377-4.891,11.805 c0,4.429,1.759,8.675,4.891,11.806l64.896,64.896l45.341-45.341L411.82,13.869z"/> </g> </g>
</svg>