<!DOCTYPE svg PUBLIC "-//W3C//DTD SVG 1.1//EN" "http://www.w3.org/Graphics/SVG/1.1/DTD/svg11.dtd">
<!-- Uploaded to: SVG Repo, www.svgrepo.com, Transformed by: SVG Repo Mixer Tools -->
<svg fill="#000000" height="64px" width="64px" version="1.1" id="Layer_1" xmlns="http://www.w3.org/2000/svg" xmlns:xlink="http://www.w3.org/1999/xlink" viewBox="0 0 512 512" xml:space="preserve">
<g id="SVGRepo_bgCarrier" stroke-width="0"/>
<g id="SVGRepo_tracerCarrier" stroke-linecap="round" stroke-linejoin="round"/>
<g id="SVGRepo_iconCarrier"> <g> <g> <path d="M436.071,437.938c0.313-0.31,0.638-0.606,0.95-0.917s0.608-0.637,0.917-0.95c1.518-1.533,3.013-3.08,4.484-4.642 c0.311-0.332,0.618-0.667,0.928-1.001c91.531-98.19,91.511-250.776-0.061-348.923c-0.279-0.301-0.556-0.603-0.837-0.902 c-1.492-1.584-3.008-3.153-4.548-4.707c-0.3-0.303-0.587-0.618-0.888-0.919c-0.314-0.314-0.641-0.612-0.957-0.924 c-1.529-1.514-3.072-3.006-4.63-4.473c-0.336-0.315-0.675-0.625-1.012-0.938C332.45-22.674,180.339-22.856,82.172,68.094 c-0.669,0.617-1.34,1.232-2.002,1.856c-0.811,0.767-1.611,1.553-2.415,2.333c-0.927,0.897-1.871,1.776-2.783,2.689 c-0.909,0.909-1.785,1.85-2.68,2.774c-0.785,0.809-1.576,1.614-2.348,2.43c-0.619,0.657-1.23,1.323-1.842,1.987 c-90.855,98.051-90.779,249.936,0.229,347.92c0.482,0.522,0.962,1.046,1.449,1.563c1.099,1.164,2.22,2.314,3.345,3.463 c0.62,0.633,1.22,1.285,1.847,1.911c0.604,0.604,1.231,1.181,1.841,1.778c1.186,1.163,2.375,2.322,3.578,3.457 c0.475,0.446,0.956,0.887,1.435,1.33c98.156,91.275,250.518,91.196,348.602-0.236c0.334-0.309,0.669-0.617,1.001-0.928 C432.991,440.951,434.538,439.455,436.071,437.938z M412.873,400.548c-0.811,0.885-1.628,1.764-2.454,2.634 c-1.175,1.231-2.363,2.454-3.573,3.664s-2.433,2.398-3.664,3.573c-0.87,0.826-1.748,1.643-2.634,2.454 c-0.173,0.16-0.345,0.321-0.518,0.48c-6.898,6.274-14.264,12.098-22.089,17.491l-66.807-83.516 c7.226-4.37,14.048-9.666,20.286-15.904c6.24-6.24,11.537-13.063,15.907-20.291l83.517,66.808 c-5.393,7.825-11.217,15.191-17.491,22.089C413.194,400.203,413.033,400.375,412.873,400.548z M299.361,303.051 c-0.374,0.343-0.75,0.685-1.132,1.018c-0.098,0.086-0.197,0.168-0.295,0.254c-7.47,6.426-16.416,10.942-26.395,13.441 c-1.049,0.263-2.049,0.601-3.008,0.995c-8.268,1.643-16.795,1.644-25.063,0.002c-0.961-0.395-1.963-0.734-3.013-0.997 c-10.055-2.517-19.063-7.08-26.566-13.584c-0.011-0.01-0.023-0.019-0.034-0.029c-0.44-0.382-0.872-0.775-1.302-1.17 c-0.417-0.386-0.829-0.778-1.238-1.177c-0.19-0.185-0.385-0.365-0.573-0.553s-0.368-0.383-0.553-0.573 c-0.399-0.409-0.791-0.821-1.177-1.238c-0.395-0.43-0.788-0.861-1.17-1.302c-0.01-0.011-0.019-0.023-0.029-0.034 c-6.504-7.503-11.067-16.511-13.584-26.566c-0.263-1.05-0.602-2.052-0.997-3.013c-1.642-8.268-1.641-16.795,0.002-25.063 c0.394-0.959,0.733-1.96,0.995-3.008c2.499-9.98,7.015-18.926,13.441-26.395c0.085-0.098,0.168-0.198,0.254-0.295 c0.333-0.382,0.675-0.758,1.018-1.132c0.496-0.538,0.999-1.071,1.517-1.596c0.096-0.097,0.187-0.197,0.284-0.294 c0.092-0.092,0.187-0.179,0.279-0.27c0.53-0.524,1.07-1.033,1.614-1.535c0.368-0.337,0.737-0.673,1.113-1.001 c0.112-0.099,0.226-0.193,0.338-0.291c7.464-6.414,16.4-10.922,26.367-13.417c1.043-0.261,2.038-0.597,2.993-0.989 c8.271-1.645,16.802-1.647,25.074-0.004c0.961,0.395,1.963,0.734,3.013,0.997c10.054,2.517,19.061,7.079,26.564,13.582 c0.012,0.011,0.025,0.021,0.037,0.032c0.439,0.381,0.87,0.773,1.299,1.168c0.418,0.387,0.833,0.781,1.243,1.182 c0.189,0.184,0.382,0.362,0.569,0.549c0.187,0.187,0.365,0.38,0.549,0.569c0.401,0.41,0.794,0.825,1.182,1.243 c0.395,0.429,0.787,0.86,1.168,1.299c0.011,0.012,0.021,0.025,0.032,0.037c6.503,7.503,11.065,16.51,13.582,26.564 c0.263,1.05,0.602,2.052,0.997,3.013c1.643,8.272,1.641,16.803-0.004,25.074c-0.392,0.955-0.727,1.95-0.989,2.993 c-2.496,9.968-7.004,18.904-13.418,26.368c-0.097,0.112-0.191,0.226-0.289,0.337c-0.327,0.375-0.663,0.745-1,1.112 c-0.502,0.545-1.012,1.085-1.536,1.616c-0.091,0.092-0.177,0.187-0.269,0.279c-0.096,0.096-0.197,0.188-0.294,0.284 C300.432,302.052,299.898,302.555,299.361,303.051z M112.13,413.503c-0.669-0.612-1.334-1.229-1.997-1.851 c-0.384-0.358-0.772-0.713-1.153-1.074c-1.286-1.225-2.562-2.467-3.825-3.73c-1.275-1.275-2.529-2.562-3.764-3.861 c-0.242-0.256-0.48-0.517-0.721-0.774c-0.753-0.799-1.496-1.603-2.234-2.411c-6.196-6.833-11.954-14.121-17.289-21.861 l83.514-66.805c4.37,7.227,9.667,14.05,15.906,20.289s13.062,11.536,20.289,15.906l-66.805,83.514 C126.289,425.495,118.98,419.719,112.13,413.503z M59.959,171.74l90.07,72.05c-0.929,8.109-0.929,16.304,0,24.413l-90.068,72.048 C36.915,286.586,36.914,225.398,59.959,171.74z M105.153,105.156c2.36-2.361,4.768-4.646,7.209-6.873 c6.784-6.138,14.014-11.846,21.689-17.136l66.808,83.517c-7.228,4.37-14.051,9.668-20.291,15.907 c-6.238,6.238-11.535,13.06-15.904,20.286l-83.516-66.807c5.291-7.678,11.001-14.909,17.14-21.694 C100.513,109.919,102.795,107.514,105.153,105.156z M400.019,98.637c0.192,0.176,0.383,0.355,0.574,0.532 c0.868,0.796,1.73,1.597,2.583,2.407c1.233,1.176,2.458,2.366,3.669,3.578c1.201,1.201,2.381,2.416,3.548,3.638 c0.937,0.986,1.866,1.98,2.783,2.987c0.043,0.047,0.088,0.094,0.131,0.141c6.29,6.911,12.127,14.292,17.532,22.135l-83.514,66.805 c-4.37-7.227-9.667-14.05-15.906-20.289s-13.062-11.536-20.289-15.906l66.805-83.514C385.76,86.543,393.123,92.365,400.019,98.637 z M361.96,268.2c0.928-8.107,0.928-16.299,0-24.406l90.08-72.058c23.048,53.662,23.048,114.854-0.001,168.521L361.96,268.2z M340.251,59.96l-72.052,90.073c-8.107-0.928-16.299-0.928-24.406,0L171.741,59.96C225.4,36.915,286.587,36.915,340.251,59.96z M171.735,452.039l72.054-90.076c8.109,0.929,16.304,0.928,24.413,0l72.054,90.075 C286.589,475.087,225.397,475.087,171.735,452.039z"/> </g> </g> </g>
</svg>